<svg xmlns="http://www.w3.org/2000/svg" width="15.457" height="12.564" viewBox="0 0 15.457 12.564">
  <g id="money" transform="translate(0 -37.989)">
    <g id="Group_23" data-name="Group 23" transform="translate(0 37.989)">
      <path id="Path_160" data-name="Path 160" d="M15.416,45.642a.3.3,0,0,0-.149-.128l-1.109-.454,1.148-.676a.3.3,0,0,0-.04-.545l-1.109-.454,1.148-.676a.309.309,0,0,0-.043-.548L10.9,40.372l-2.15-.914a.3.3,0,0,0-.11-.021l-3.5-1.425a.3.3,0,0,0-.265.015L.18,40.665a.3.3,0,0,0,.03.557l1.133.469L.18,42.34a.3.3,0,0,0,.03.545l1.133.469L.186,44a.3.3,0,0,0,.024.57l1.133.466-1.157.649a.3.3,0,0,0,.03.545L4.154,47.9a.3.3,0,0,0,.046.027l2.153.914,3.959,1.684a.3.3,0,0,0,.274-.018l4.721-2.777a.3.3,0,0,0-.04-.545l-1.109-.454,1.148-.676A.3.3,0,0,0,15.416,45.642Zm-.95-1.478-4.06,2.391-3.63-1.541V44l3.533,1.5a.3.3,0,0,0,.274-.018L13.5,43.768Zm.012-1.678-4.072,2.391-3.3-1.4,3.715-2.482ZM4,47.185l-2.988-1.27,1.026-.576,1.964.834ZM4,45.51,1.017,44.24l1.026-.582,1.964.834Zm0-1.675L1.017,42.568l1.026-.576,1.964.834ZM1.017,40.893,5.043,38.63l2.921,1.2L4.285,42.282ZM6.3,43.287a.3.3,0,0,0-.134.253v4.568l-1.55-.658V42.794L8.652,40.1l1.5.609Zm8.165,4.227L10.406,49.9l-3.63-1.541V47.35l3.533,1.486a.3.3,0,0,0,.274-.018L13.5,47.1Zm-4.06.713-3.63-1.541V45.675l3.536,1.5a.3.3,0,0,0,.274-.018L13.5,45.443l.965.4Z" transform="translate(0 -37.989)" fill="#8ed2ff"/>
    </g>
  </g>
</svg>
