<svg xmlns="http://www.w3.org/2000/svg" width="15.322" height="13.79" viewBox="0 0 15.322 13.79">
  <path id="Path_156" data-name="Path 156" d="M15.024,6.064h-2.3V4.915A1.915,1.915,0,0,0,10.81,3h-2.3A1.915,1.915,0,0,0,6.6,4.915V6.064H4.3A2.3,2.3,0,0,0,2,8.363v6.129a2.3,2.3,0,0,0,2.3,2.3H15.024a2.3,2.3,0,0,0,2.3-2.3V8.363A2.3,2.3,0,0,0,15.024,6.064ZM11.959,7.6v7.661h-4.6V7.6ZM8.129,4.915a.383.383,0,0,1,.383-.383h2.3a.383.383,0,0,1,.383.383V6.064H8.129Zm-4.6,9.576V8.363A.766.766,0,0,1,4.3,7.6H5.831v7.661H4.3A.766.766,0,0,1,3.532,14.492Zm12.258,0a.766.766,0,0,1-.766.766H13.492V7.6h1.532a.766.766,0,0,1,.766.766Z" transform="translate(-2 -3)" fill="#8ed2ff"/>
</svg>
